<mxfile host="app.diagrams.net" modified="2021-07-20T08:45:07.811Z" agent="5.0 (Windows NT 10.0; Win64; x64) AppleWebKit/537.36 (KHTML, like Gecko) Chrome/91.0.4472.124 Safari/537.36" etag="DuxqVVO_FgQSxndh40P9" version="14.8.6" type="github">
  <diagram id="DQ5C5lG7SInc3p99U6VC" name="Page-1">
    <mxGraphModel dx="1422" dy="882" grid="1" gridSize="10" guides="1" tooltips="1" connect="1" arrows="1" fold="1" page="1" pageScale="1" pageWidth="827" pageHeight="1169" math="0" shadow="0">
      <root>
        <mxCell id="0" />
        <mxCell id="1" parent="0" />
        <mxCell id="K9nIsjoXFBJWTDQDrknV-18" value="&lt;b&gt;Proposals&lt;/b&gt;" style="ellipse;whiteSpace=wrap;html=1;fillColor=#d5e8d4;strokeColor=#82b366;shadow=1;sketch=1;fontFamily=Comic Sans MS;verticalAlign=middle;fontSize=14;" parent="1" vertex="1">
          <mxGeometry x="660" y="220" width="120" height="80" as="geometry" />
        </mxCell>
        <mxCell id="K9nIsjoXFBJWTDQDrknV-50" style="edgeStyle=orthogonalEdgeStyle;rounded=0;jumpSize=6;orthogonalLoop=1;jettySize=auto;html=1;entryX=0.5;entryY=1;entryDx=0;entryDy=0;endArrow=classic;endFill=1;startSize=6;endSize=6;strokeColor=#000000;strokeWidth=1;shadow=0;sketch=1;fontFamily=Comic Sans MS;verticalAlign=middle;fontSize=14;" parent="1" source="K9nIsjoXFBJWTDQDrknV-19" target="K9nIsjoXFBJWTDQDrknV-46" edge="1">
          <mxGeometry relative="1" as="geometry" />
        </mxCell>
        <mxCell id="K9nIsjoXFBJWTDQDrknV-51" value="Get Product Resources" style="edgeLabel;html=1;align=center;verticalAlign=bottom;resizable=0;points=[];fontFamily=Comic Sans MS;fontSize=14;labelBackgroundColor=#ffffff;" parent="K9nIsjoXFBJWTDQDrknV-50" vertex="1" connectable="0">
          <mxGeometry x="-0.3" relative="1" as="geometry">
            <mxPoint x="70" y="-15" as="offset" />
          </mxGeometry>
        </mxCell>
        <mxCell id="K9nIsjoXFBJWTDQDrknV-19" value="&lt;b&gt;Products&lt;/b&gt;" style="ellipse;whiteSpace=wrap;html=1;fillColor=#e1d5e7;strokeColor=#9673a6;shadow=1;sketch=1;fontFamily=Comic Sans MS;verticalAlign=middle;fontSize=14;" parent="1" vertex="1">
          <mxGeometry x="660" y="580" width="120" height="80" as="geometry" />
        </mxCell>
        <mxCell id="K9nIsjoXFBJWTDQDrknV-20" value="" style="endArrow=classic;html=1;edgeStyle=orthogonalEdgeStyle;strokeWidth=1;startSize=6;endSize=6;jumpSize=6;rounded=0;endFill=1;entryX=0.5;entryY=0;entryDx=0;entryDy=0;shadow=0;sketch=1;fontFamily=Comic Sans MS;verticalAlign=middle;fontSize=14;" parent="1" source="K9nIsjoXFBJWTDQDrknV-18" target="K9nIsjoXFBJWTDQDrknV-46" edge="1">
          <mxGeometry width="50" height="50" relative="1" as="geometry">
            <mxPoint x="420" y="420" as="sourcePoint" />
            <mxPoint x="720" y="480" as="targetPoint" />
          </mxGeometry>
        </mxCell>
        <mxCell id="K9nIsjoXFBJWTDQDrknV-21" value="Get Proposal Details" style="edgeLabel;html=1;align=center;verticalAlign=bottom;resizable=0;points=[];fontFamily=Comic Sans MS;fontSize=14;" parent="K9nIsjoXFBJWTDQDrknV-20" vertex="1" connectable="0">
          <mxGeometry x="-0.4167" y="1" relative="1" as="geometry">
            <mxPoint x="59" y="15" as="offset" />
          </mxGeometry>
        </mxCell>
        <mxCell id="K9nIsjoXFBJWTDQDrknV-24" style="edgeStyle=orthogonalEdgeStyle;rounded=0;jumpSize=6;orthogonalLoop=1;jettySize=auto;html=1;endArrow=classic;endFill=1;startSize=6;endSize=6;strokeColor=#000000;strokeWidth=1;exitX=0;exitY=0.5;exitDx=0;exitDy=0;shadow=0;sketch=1;fontFamily=Comic Sans MS;verticalAlign=middle;fontSize=14;" parent="1" source="K9nIsjoXFBJWTDQDrknV-22" target="K9nIsjoXFBJWTDQDrknV-18" edge="1">
          <mxGeometry relative="1" as="geometry" />
        </mxCell>
        <mxCell id="K9nIsjoXFBJWTDQDrknV-22" value="&lt;b&gt;Database&lt;/b&gt;" style="ellipse;whiteSpace=wrap;html=1;fillColor=#f5f5f5;strokeColor=#666666;fontColor=#333333;shadow=1;sketch=1;fontFamily=Comic Sans MS;verticalAlign=middle;fontSize=14;" parent="1" vertex="1">
          <mxGeometry x="740" y="100" width="80" height="40" as="geometry" />
        </mxCell>
        <mxCell id="K9nIsjoXFBJWTDQDrknV-25" style="edgeStyle=orthogonalEdgeStyle;rounded=0;jumpSize=6;orthogonalLoop=1;jettySize=auto;html=1;endArrow=classic;endFill=1;startSize=6;endSize=6;strokeColor=#000000;strokeWidth=1;shadow=0;sketch=1;fontFamily=Comic Sans MS;verticalAlign=middle;fontSize=14;" parent="1" source="K9nIsjoXFBJWTDQDrknV-23" edge="1">
          <mxGeometry relative="1" as="geometry">
            <mxPoint x="720" y="220" as="targetPoint" />
          </mxGeometry>
        </mxCell>
        <mxCell id="K9nIsjoXFBJWTDQDrknV-23" value="&lt;b&gt;Workflow&lt;/b&gt;" style="ellipse;whiteSpace=wrap;html=1;fillColor=#f5f5f5;strokeColor=#666666;fontColor=#333333;shadow=1;sketch=1;fontFamily=Comic Sans MS;verticalAlign=middle;fontSize=14;" parent="1" vertex="1">
          <mxGeometry x="740" y="160" width="80" height="40" as="geometry" />
        </mxCell>
        <mxCell id="K9nIsjoXFBJWTDQDrknV-26" value="" style="endArrow=classic;html=1;edgeStyle=orthogonalEdgeStyle;strokeWidth=1;startSize=6;endSize=6;jumpSize=6;rounded=0;endFill=1;entryX=1;entryY=0.5;entryDx=0;entryDy=0;exitX=0;exitY=0.5;exitDx=0;exitDy=0;shadow=0;sketch=1;fontFamily=Comic Sans MS;verticalAlign=middle;fontSize=14;" parent="1" source="K9nIsjoXFBJWTDQDrknV-34" target="K9nIsjoXFBJWTDQDrknV-22" edge="1">
          <mxGeometry width="50" height="50" relative="1" as="geometry">
            <mxPoint x="1020" y="120" as="sourcePoint" />
            <mxPoint x="950" y="370" as="targetPoint" />
          </mxGeometry>
        </mxCell>
        <mxCell id="K9nIsjoXFBJWTDQDrknV-27" value="Approved" style="edgeLabel;html=1;align=center;verticalAlign=bottom;resizable=0;points=[];fontFamily=Comic Sans MS;fontSize=14;" parent="K9nIsjoXFBJWTDQDrknV-26" vertex="1" connectable="0">
          <mxGeometry x="-0.4167" y="1" relative="1" as="geometry">
            <mxPoint x="21" y="-1" as="offset" />
          </mxGeometry>
        </mxCell>
        <mxCell id="K9nIsjoXFBJWTDQDrknV-28" value="" style="endArrow=classic;html=1;edgeStyle=orthogonalEdgeStyle;strokeWidth=1;startSize=6;endSize=6;jumpSize=6;rounded=0;endFill=1;entryX=1;entryY=0.5;entryDx=0;entryDy=0;shadow=0;sketch=1;fontFamily=Comic Sans MS;verticalAlign=middle;fontSize=14;" parent="1" target="K9nIsjoXFBJWTDQDrknV-22" edge="1">
          <mxGeometry width="50" height="50" relative="1" as="geometry">
            <mxPoint x="1030" y="90" as="sourcePoint" />
            <mxPoint x="820" y="90" as="targetPoint" />
            <Array as="points">
              <mxPoint x="860" y="90" />
              <mxPoint x="860" y="120" />
            </Array>
          </mxGeometry>
        </mxCell>
        <mxCell id="K9nIsjoXFBJWTDQDrknV-29" value="Archived" style="edgeLabel;html=1;align=center;verticalAlign=bottom;resizable=0;points=[];fontFamily=Comic Sans MS;fontSize=14;" parent="K9nIsjoXFBJWTDQDrknV-28" vertex="1" connectable="0">
          <mxGeometry x="-0.4167" y="1" relative="1" as="geometry">
            <mxPoint x="30" y="-1" as="offset" />
          </mxGeometry>
        </mxCell>
        <mxCell id="K9nIsjoXFBJWTDQDrknV-30" value="" style="endArrow=classic;html=1;edgeStyle=orthogonalEdgeStyle;strokeWidth=1;startSize=6;endSize=6;jumpSize=6;rounded=0;endFill=1;entryX=1;entryY=0.5;entryDx=0;entryDy=0;shadow=0;sketch=1;fontFamily=Comic Sans MS;verticalAlign=bottom;fontSize=14;" parent="1" target="K9nIsjoXFBJWTDQDrknV-34" edge="1">
          <mxGeometry width="50" height="50" relative="1" as="geometry">
            <mxPoint x="1200" y="90" as="sourcePoint" />
            <mxPoint x="1150" y="90" as="targetPoint" />
            <Array as="points">
              <mxPoint x="1090" y="90" />
              <mxPoint x="1090" y="120" />
            </Array>
          </mxGeometry>
        </mxCell>
        <mxCell id="K9nIsjoXFBJWTDQDrknV-31" value="Executing" style="edgeLabel;html=1;align=center;verticalAlign=bottom;resizable=0;points=[];fontFamily=Comic Sans MS;fontSize=14;" parent="K9nIsjoXFBJWTDQDrknV-30" vertex="1" connectable="0">
          <mxGeometry x="-0.4167" y="1" relative="1" as="geometry">
            <mxPoint x="12" y="-1" as="offset" />
          </mxGeometry>
        </mxCell>
        <mxCell id="K9nIsjoXFBJWTDQDrknV-32" value="" style="endArrow=classic;html=1;edgeStyle=orthogonalEdgeStyle;strokeWidth=1;startSize=6;endSize=6;jumpSize=6;rounded=0;endFill=1;entryX=1;entryY=0.5;entryDx=0;entryDy=0;shadow=0;sketch=1;fontFamily=Comic Sans MS;verticalAlign=bottom;fontSize=14;" parent="1" target="K9nIsjoXFBJWTDQDrknV-34" edge="1">
          <mxGeometry width="50" height="50" relative="1" as="geometry">
            <mxPoint x="1200" y="120" as="sourcePoint" />
            <mxPoint x="1080" y="170" as="targetPoint" />
            <Array as="points">
              <mxPoint x="1200" y="120" />
            </Array>
          </mxGeometry>
        </mxCell>
        <mxCell id="K9nIsjoXFBJWTDQDrknV-33" value="Non-Executing" style="edgeLabel;html=1;align=center;verticalAlign=bottom;resizable=0;points=[];fontFamily=Comic Sans MS;fontSize=14;" parent="K9nIsjoXFBJWTDQDrknV-32" vertex="1" connectable="0">
          <mxGeometry x="-0.4167" y="1" relative="1" as="geometry">
            <mxPoint x="-6" y="-1" as="offset" />
          </mxGeometry>
        </mxCell>
        <mxCell id="K9nIsjoXFBJWTDQDrknV-34" value="" style="ellipse;whiteSpace=wrap;html=1;aspect=fixed;fillColor=#f5f5f5;strokeColor=#666666;fontColor=#333333;shadow=1;sketch=1;fontFamily=Comic Sans MS;verticalAlign=bottom;fontSize=14;" parent="1" vertex="1">
          <mxGeometry x="1030" y="110" width="20" height="20" as="geometry" />
        </mxCell>
        <mxCell id="K9nIsjoXFBJWTDQDrknV-36" value="" style="endArrow=classic;html=1;edgeStyle=orthogonalEdgeStyle;strokeWidth=1;startSize=6;endSize=6;jumpSize=6;rounded=0;endFill=1;entryX=1;entryY=0.5;entryDx=0;entryDy=0;shadow=0;sketch=1;fontFamily=Comic Sans MS;verticalAlign=middle;fontSize=14;" parent="1" target="K9nIsjoXFBJWTDQDrknV-23" edge="1">
          <mxGeometry width="50" height="50" relative="1" as="geometry">
            <mxPoint x="1030" y="180" as="sourcePoint" />
            <mxPoint x="880" y="210" as="targetPoint" />
            <Array as="points">
              <mxPoint x="980" y="180" />
              <mxPoint x="980" y="180" />
            </Array>
          </mxGeometry>
        </mxCell>
        <mxCell id="K9nIsjoXFBJWTDQDrknV-37" value="Draft" style="edgeLabel;html=1;align=center;verticalAlign=bottom;resizable=0;points=[];fontFamily=Comic Sans MS;fontSize=14;" parent="K9nIsjoXFBJWTDQDrknV-36" vertex="1" connectable="0">
          <mxGeometry x="-0.4167" y="1" relative="1" as="geometry">
            <mxPoint x="31" y="-1" as="offset" />
          </mxGeometry>
        </mxCell>
        <mxCell id="K9nIsjoXFBJWTDQDrknV-38" value="" style="endArrow=classic;html=1;edgeStyle=orthogonalEdgeStyle;strokeWidth=1;startSize=6;endSize=6;jumpSize=6;rounded=0;endFill=1;shadow=0;sketch=1;fontFamily=Comic Sans MS;verticalAlign=middle;fontSize=14;" parent="1" edge="1">
          <mxGeometry width="50" height="50" relative="1" as="geometry">
            <mxPoint x="1030" y="210" as="sourcePoint" />
            <mxPoint x="820" y="180" as="targetPoint" />
            <Array as="points">
              <mxPoint x="1030" y="210" />
              <mxPoint x="860" y="210" />
              <mxPoint x="860" y="180" />
            </Array>
          </mxGeometry>
        </mxCell>
        <mxCell id="K9nIsjoXFBJWTDQDrknV-39" value="Kroger Review" style="edgeLabel;html=1;align=center;verticalAlign=bottom;resizable=0;points=[];fontFamily=Comic Sans MS;fontSize=14;" parent="K9nIsjoXFBJWTDQDrknV-38" vertex="1" connectable="0">
          <mxGeometry x="-0.4167" y="1" relative="1" as="geometry">
            <mxPoint x="20" y="-1" as="offset" />
          </mxGeometry>
        </mxCell>
        <mxCell id="K9nIsjoXFBJWTDQDrknV-40" value="" style="endArrow=classic;html=1;edgeStyle=orthogonalEdgeStyle;strokeWidth=1;startSize=6;endSize=6;jumpSize=6;rounded=0;endFill=1;entryX=1;entryY=0.5;entryDx=0;entryDy=0;shadow=0;sketch=1;fontFamily=Comic Sans MS;verticalAlign=middle;fontSize=14;" parent="1" target="K9nIsjoXFBJWTDQDrknV-23" edge="1">
          <mxGeometry width="50" height="50" relative="1" as="geometry">
            <mxPoint x="1030" y="240" as="sourcePoint" />
            <mxPoint x="830" y="261" as="targetPoint" />
            <Array as="points">
              <mxPoint x="1030" y="240" />
              <mxPoint x="860" y="240" />
              <mxPoint x="860" y="180" />
            </Array>
          </mxGeometry>
        </mxCell>
        <mxCell id="K9nIsjoXFBJWTDQDrknV-41" value="Vendor Review" style="edgeLabel;html=1;align=center;verticalAlign=bottom;resizable=0;points=[];fontFamily=Comic Sans MS;fontSize=14;" parent="K9nIsjoXFBJWTDQDrknV-40" vertex="1" connectable="0">
          <mxGeometry x="-0.4167" y="1" relative="1" as="geometry">
            <mxPoint x="29" y="-1" as="offset" />
          </mxGeometry>
        </mxCell>
        <mxCell id="K9nIsjoXFBJWTDQDrknV-42" value="" style="endArrow=classic;html=1;edgeStyle=orthogonalEdgeStyle;strokeWidth=1;startSize=6;endSize=6;jumpSize=6;rounded=0;endFill=1;entryX=1;entryY=0.5;entryDx=0;entryDy=0;shadow=0;sketch=1;fontFamily=Comic Sans MS;verticalAlign=middle;fontSize=14;" parent="1" target="K9nIsjoXFBJWTDQDrknV-23" edge="1">
          <mxGeometry width="50" height="50" relative="1" as="geometry">
            <mxPoint x="1030" y="270" as="sourcePoint" />
            <mxPoint x="840" y="290" as="targetPoint" />
            <Array as="points">
              <mxPoint x="1030" y="270" />
              <mxPoint x="860" y="270" />
              <mxPoint x="860" y="180" />
            </Array>
          </mxGeometry>
        </mxCell>
        <mxCell id="K9nIsjoXFBJWTDQDrknV-43" value="Rejected" style="edgeLabel;html=1;align=center;verticalAlign=bottom;resizable=0;points=[];fontFamily=Comic Sans MS;fontSize=14;" parent="K9nIsjoXFBJWTDQDrknV-42" vertex="1" connectable="0">
          <mxGeometry x="-0.4167" y="1" relative="1" as="geometry">
            <mxPoint x="47" y="-1" as="offset" />
          </mxGeometry>
        </mxCell>
        <mxCell id="K9nIsjoXFBJWTDQDrknV-44" value="" style="endArrow=classic;html=1;edgeStyle=orthogonalEdgeStyle;strokeWidth=1;startSize=6;endSize=6;jumpSize=6;rounded=0;endFill=1;shadow=0;sketch=1;fontFamily=Comic Sans MS;verticalAlign=middle;fontSize=14;" parent="1" edge="1">
          <mxGeometry width="50" height="50" relative="1" as="geometry">
            <mxPoint x="1030" y="300" as="sourcePoint" />
            <mxPoint x="820" y="180" as="targetPoint" />
            <Array as="points">
              <mxPoint x="1030" y="300" />
              <mxPoint x="860" y="300" />
              <mxPoint x="860" y="180" />
            </Array>
          </mxGeometry>
        </mxCell>
        <mxCell id="K9nIsjoXFBJWTDQDrknV-45" value="Cancelled" style="edgeLabel;html=1;align=center;verticalAlign=bottom;resizable=0;points=[];fontFamily=Comic Sans MS;fontSize=14;" parent="K9nIsjoXFBJWTDQDrknV-44" vertex="1" connectable="0">
          <mxGeometry x="-0.4167" y="1" relative="1" as="geometry">
            <mxPoint x="56" y="-1" as="offset" />
          </mxGeometry>
        </mxCell>
        <mxCell id="K9nIsjoXFBJWTDQDrknV-52" style="edgeStyle=orthogonalEdgeStyle;rounded=0;jumpSize=6;orthogonalLoop=1;jettySize=auto;html=1;endArrow=classic;endFill=1;startSize=6;endSize=6;strokeColor=#000000;strokeWidth=1;entryX=0;entryY=0.5;entryDx=0;entryDy=0;shadow=0;sketch=1;fontFamily=Comic Sans MS;verticalAlign=middle;fontSize=14;" parent="1" source="K9nIsjoXFBJWTDQDrknV-46" target="K9nIsjoXFBJWTDQDrknV-54" edge="1">
          <mxGeometry relative="1" as="geometry">
            <mxPoint x="1030" y="450" as="targetPoint" />
          </mxGeometry>
        </mxCell>
        <mxCell id="K9nIsjoXFBJWTDQDrknV-46" value="&lt;b&gt;Proposal Update Processor&lt;/b&gt;" style="rounded=1;whiteSpace=wrap;html=1;fillColor=#ffe6cc;strokeColor=#d79b00;shadow=1;sketch=1;fontFamily=Comic Sans MS;verticalAlign=middle;fontSize=14;" parent="1" vertex="1">
          <mxGeometry x="660" y="420" width="120" height="60" as="geometry" />
        </mxCell>
        <mxCell id="K9nIsjoXFBJWTDQDrknV-48" style="edgeStyle=orthogonalEdgeStyle;jumpSize=6;orthogonalLoop=1;jettySize=auto;html=1;endArrow=classic;endFill=1;startSize=6;endSize=6;strokeColor=#000000;strokeWidth=1;rounded=0;shadow=0;sketch=1;fontFamily=Comic Sans MS;verticalAlign=middle;fontSize=14;" parent="1" source="K9nIsjoXFBJWTDQDrknV-47" target="K9nIsjoXFBJWTDQDrknV-46" edge="1">
          <mxGeometry relative="1" as="geometry" />
        </mxCell>
        <mxCell id="K9nIsjoXFBJWTDQDrknV-58" value="Proposal IDs" style="edgeLabel;html=1;align=center;verticalAlign=bottom;resizable=0;points=[];fontSize=14;fontFamily=Comic Sans MS;" parent="K9nIsjoXFBJWTDQDrknV-48" vertex="1" connectable="0">
          <mxGeometry x="-0.3" y="2" relative="1" as="geometry">
            <mxPoint x="33" y="2" as="offset" />
          </mxGeometry>
        </mxCell>
        <mxCell id="K9nIsjoXFBJWTDQDrknV-47" value="" style="ellipse;whiteSpace=wrap;html=1;aspect=fixed;fillColor=#f5f5f5;strokeColor=#666666;fontColor=#333333;shadow=1;sketch=1;fontFamily=Comic Sans MS;verticalAlign=middle;fontSize=14;" parent="1" vertex="1">
          <mxGeometry x="450" y="440" width="20" height="20" as="geometry" />
        </mxCell>
        <mxCell id="K9nIsjoXFBJWTDQDrknV-54" value="&lt;b&gt;End&lt;/b&gt;" style="ellipse;whiteSpace=wrap;html=1;aspect=fixed;fillColor=#f5f5f5;strokeColor=#666666;fontColor=#333333;shadow=1;sketch=1;fontFamily=Comic Sans MS;verticalAlign=middle;fontSize=14;" parent="1" vertex="1">
          <mxGeometry x="920" y="430" width="40" height="40" as="geometry" />
        </mxCell>
        <mxCell id="K9nIsjoXFBJWTDQDrknV-56" style="edgeStyle=orthogonalEdgeStyle;rounded=0;sketch=1;jumpSize=6;orthogonalLoop=1;jettySize=auto;html=1;entryX=0;entryY=0.5;entryDx=0;entryDy=0;shadow=0;fontFamily=Comic Sans MS;fontSize=14;endArrow=classic;endFill=1;startSize=6;endSize=6;strokeColor=#000000;strokeWidth=1;verticalAlign=middle;" parent="1" source="K9nIsjoXFBJWTDQDrknV-55" target="K9nIsjoXFBJWTDQDrknV-47" edge="1">
          <mxGeometry relative="1" as="geometry" />
        </mxCell>
        <mxCell id="K9nIsjoXFBJWTDQDrknV-57" value="Item Change" style="edgeLabel;html=1;align=center;verticalAlign=bottom;resizable=0;points=[];fontSize=14;fontFamily=Comic Sans MS;" parent="K9nIsjoXFBJWTDQDrknV-56" vertex="1" connectable="0">
          <mxGeometry x="-0.2143" relative="1" as="geometry">
            <mxPoint x="27" as="offset" />
          </mxGeometry>
        </mxCell>
        <mxCell id="K9nIsjoXFBJWTDQDrknV-55" value="&lt;b&gt;Item Import&lt;/b&gt;" style="rounded=1;whiteSpace=wrap;html=1;shadow=1;labelBackgroundColor=none;sketch=1;fontFamily=Comic Sans MS;fontSize=14;verticalAlign=middle;fillColor=#f8cecc;strokeColor=#b85450;glass=0;" parent="1" vertex="1">
          <mxGeometry x="170" y="420" width="120" height="60" as="geometry" />
        </mxCell>
      </root>
    </mxGraphModel>
  </diagram>
</mxfile>
